<mxfile host="Electron" agent="Mozilla/5.0 (Windows NT 10.0; Win64; x64) AppleWebKit/537.36 (KHTML, like Gecko) draw.io/26.2.15 Chrome/134.0.6998.205 Electron/35.2.1 Safari/537.36" version="26.2.15" pages="5">
  <diagram name="Страница — 1" id="z1r6vRP1j930XpXoO6Ej">
    <mxGraphModel dx="1600" dy="503" grid="1" gridSize="10" guides="1" tooltips="1" connect="1" arrows="1" fold="1" page="1" pageScale="1" pageWidth="827" pageHeight="1169" background="none" math="0" shadow="0">
      <root>
        <mxCell id="0" />
        <mxCell id="1" parent="0" />
        <mxCell id="lSE5mExSeNMDl4p-Yw-g-20" style="edgeStyle=orthogonalEdgeStyle;rounded=0;orthogonalLoop=1;jettySize=auto;html=1;exitX=1;exitY=0.5;exitDx=0;exitDy=0;entryX=0;entryY=0.5;entryDx=0;entryDy=0;" parent="1" source="zYIsdH4syQYcVRtJxL93-1" target="lSE5mExSeNMDl4p-Yw-g-1" edge="1">
          <mxGeometry relative="1" as="geometry" />
        </mxCell>
        <mxCell id="lSE5mExSeNMDl4p-Yw-g-21" value="DIARY ID" style="edgeLabel;html=1;align=center;verticalAlign=middle;resizable=0;points=[];" parent="lSE5mExSeNMDl4p-Yw-g-20" vertex="1" connectable="0">
          <mxGeometry x="-0.13" y="-1" relative="1" as="geometry">
            <mxPoint y="1" as="offset" />
          </mxGeometry>
        </mxCell>
        <mxCell id="lSE5mExSeNMDl4p-Yw-g-24" style="edgeStyle=orthogonalEdgeStyle;rounded=0;orthogonalLoop=1;jettySize=auto;html=1;entryX=0;entryY=0.5;entryDx=0;entryDy=0;exitX=0.5;exitY=1;exitDx=0;exitDy=0;" parent="1" source="zYIsdH4syQYcVRtJxL93-1" target="lSE5mExSeNMDl4p-Yw-g-22" edge="1">
          <mxGeometry relative="1" as="geometry">
            <mxPoint x="100" y="130" as="sourcePoint" />
          </mxGeometry>
        </mxCell>
        <mxCell id="zYIsdH4syQYcVRtJxL93-1" value="User" style="whiteSpace=wrap;html=1;aspect=fixed;" parent="1" vertex="1">
          <mxGeometry x="40" y="40" width="80" height="80" as="geometry" />
        </mxCell>
        <mxCell id="lSE5mExSeNMDl4p-Yw-g-4" style="edgeStyle=orthogonalEdgeStyle;rounded=0;orthogonalLoop=1;jettySize=auto;html=1;entryX=0;entryY=0.5;entryDx=0;entryDy=0;" parent="1" source="lSE5mExSeNMDl4p-Yw-g-1" target="lSE5mExSeNMDl4p-Yw-g-2" edge="1">
          <mxGeometry relative="1" as="geometry" />
        </mxCell>
        <mxCell id="lSE5mExSeNMDl4p-Yw-g-25" style="edgeStyle=orthogonalEdgeStyle;rounded=0;orthogonalLoop=1;jettySize=auto;html=1;entryX=1;entryY=0.5;entryDx=0;entryDy=0;" parent="1" source="lSE5mExSeNMDl4p-Yw-g-1" target="lSE5mExSeNMDl4p-Yw-g-22" edge="1">
          <mxGeometry relative="1" as="geometry" />
        </mxCell>
        <mxCell id="lSE5mExSeNMDl4p-Yw-g-1" value="Diary" style="whiteSpace=wrap;html=1;aspect=fixed;" parent="1" vertex="1">
          <mxGeometry x="220" y="40" width="80" height="80" as="geometry" />
        </mxCell>
        <mxCell id="lSE5mExSeNMDl4p-Yw-g-2" value="Entry" style="whiteSpace=wrap;html=1;aspect=fixed;" parent="1" vertex="1">
          <mxGeometry x="350" y="40" width="80" height="80" as="geometry" />
        </mxCell>
        <mxCell id="lSE5mExSeNMDl4p-Yw-g-6" value="App" style="whiteSpace=wrap;html=1;aspect=fixed;" parent="1" vertex="1">
          <mxGeometry x="270" y="390" width="80" height="80" as="geometry" />
        </mxCell>
        <mxCell id="lSE5mExSeNMDl4p-Yw-g-9" style="edgeStyle=orthogonalEdgeStyle;rounded=0;orthogonalLoop=1;jettySize=auto;html=1;entryX=0;entryY=0.5;entryDx=0;entryDy=0;" parent="1" source="lSE5mExSeNMDl4p-Yw-g-7" target="lSE5mExSeNMDl4p-Yw-g-8" edge="1">
          <mxGeometry relative="1" as="geometry" />
        </mxCell>
        <mxCell id="lSE5mExSeNMDl4p-Yw-g-7" value="Actor" style="shape=umlActor;verticalLabelPosition=bottom;verticalAlign=top;html=1;outlineConnect=0;" parent="1" vertex="1">
          <mxGeometry x="190" y="680" width="30" height="60" as="geometry" />
        </mxCell>
        <mxCell id="lSE5mExSeNMDl4p-Yw-g-14" style="edgeStyle=orthogonalEdgeStyle;rounded=0;orthogonalLoop=1;jettySize=auto;html=1;exitX=0;exitY=0.75;exitDx=0;exitDy=0;" parent="1" source="lSE5mExSeNMDl4p-Yw-g-8" edge="1">
          <mxGeometry relative="1" as="geometry">
            <mxPoint x="230" y="730" as="targetPoint" />
          </mxGeometry>
        </mxCell>
        <mxCell id="lSE5mExSeNMDl4p-Yw-g-8" value="User&lt;div&gt;Interface&lt;/div&gt;" style="whiteSpace=wrap;html=1;aspect=fixed;" parent="1" vertex="1">
          <mxGeometry x="350" y="670" width="80" height="80" as="geometry" />
        </mxCell>
        <mxCell id="W5Z1fbaDE1aw0kc6kPPc-9" value="" style="edgeStyle=orthogonalEdgeStyle;rounded=0;orthogonalLoop=1;jettySize=auto;html=1;" parent="1" source="lSE5mExSeNMDl4p-Yw-g-10" target="W5Z1fbaDE1aw0kc6kPPc-1" edge="1">
          <mxGeometry relative="1" as="geometry" />
        </mxCell>
        <mxCell id="lSE5mExSeNMDl4p-Yw-g-10" value="DB" style="shape=cylinder3;whiteSpace=wrap;html=1;boundedLbl=1;backgroundOutline=1;size=15;" parent="1" vertex="1">
          <mxGeometry x="740" y="140" width="60" height="80" as="geometry" />
        </mxCell>
        <mxCell id="QW94PPXgsl6Kzke8XjY0-5" style="edgeStyle=orthogonalEdgeStyle;rounded=0;orthogonalLoop=1;jettySize=auto;html=1;" parent="1" source="lSE5mExSeNMDl4p-Yw-g-11" target="QW94PPXgsl6Kzke8XjY0-2" edge="1">
          <mxGeometry relative="1" as="geometry">
            <Array as="points">
              <mxPoint x="180" y="180" />
            </Array>
          </mxGeometry>
        </mxCell>
        <mxCell id="QW94PPXgsl6Kzke8XjY0-6" style="edgeStyle=orthogonalEdgeStyle;rounded=0;orthogonalLoop=1;jettySize=auto;html=1;" parent="1" source="lSE5mExSeNMDl4p-Yw-g-11" target="QW94PPXgsl6Kzke8XjY0-1" edge="1">
          <mxGeometry relative="1" as="geometry">
            <Array as="points">
              <mxPoint x="450" y="180" />
            </Array>
          </mxGeometry>
        </mxCell>
        <mxCell id="W5Z1fbaDE1aw0kc6kPPc-3" value="" style="edgeStyle=orthogonalEdgeStyle;rounded=0;orthogonalLoop=1;jettySize=auto;html=1;" parent="1" source="lSE5mExSeNMDl4p-Yw-g-11" target="W5Z1fbaDE1aw0kc6kPPc-1" edge="1">
          <mxGeometry relative="1" as="geometry" />
        </mxCell>
        <mxCell id="lSE5mExSeNMDl4p-Yw-g-11" value="IDatabase&lt;div&gt;Controller&lt;/div&gt;" style="whiteSpace=wrap;html=1;aspect=fixed;" parent="1" vertex="1">
          <mxGeometry x="480" y="140" width="80" height="80" as="geometry" />
        </mxCell>
        <mxCell id="lSE5mExSeNMDl4p-Yw-g-18" style="edgeStyle=orthogonalEdgeStyle;rounded=0;orthogonalLoop=1;jettySize=auto;html=1;" parent="1" source="lSE5mExSeNMDl4p-Yw-g-15" target="W5Z1fbaDE1aw0kc6kPPc-1" edge="1">
          <mxGeometry relative="1" as="geometry" />
        </mxCell>
        <mxCell id="lSE5mExSeNMDl4p-Yw-g-15" value="DB&lt;div&gt;Interaction&lt;br&gt;Realization&lt;/div&gt;" style="whiteSpace=wrap;html=1;aspect=fixed;" parent="1" vertex="1">
          <mxGeometry x="600" width="80" height="80" as="geometry" />
        </mxCell>
        <mxCell id="lSE5mExSeNMDl4p-Yw-g-17" style="edgeStyle=orthogonalEdgeStyle;rounded=0;orthogonalLoop=1;jettySize=auto;html=1;entryX=0.5;entryY=1;entryDx=0;entryDy=0;" parent="1" source="lSE5mExSeNMDl4p-Yw-g-16" target="lSE5mExSeNMDl4p-Yw-g-8" edge="1">
          <mxGeometry relative="1" as="geometry" />
        </mxCell>
        <mxCell id="lSE5mExSeNMDl4p-Yw-g-16" value="User Interface Realization" style="whiteSpace=wrap;html=1;aspect=fixed;" parent="1" vertex="1">
          <mxGeometry x="470" y="740" width="80" height="80" as="geometry" />
        </mxCell>
        <mxCell id="lSE5mExSeNMDl4p-Yw-g-22" value="Data" style="ellipse;whiteSpace=wrap;html=1;aspect=fixed;" parent="1" vertex="1">
          <mxGeometry x="10" y="220" width="80" height="80" as="geometry" />
        </mxCell>
        <mxCell id="QW94PPXgsl6Kzke8XjY0-3" style="edgeStyle=orthogonalEdgeStyle;rounded=0;orthogonalLoop=1;jettySize=auto;html=1;" parent="1" source="QW94PPXgsl6Kzke8XjY0-1" target="lSE5mExSeNMDl4p-Yw-g-11" edge="1">
          <mxGeometry relative="1" as="geometry">
            <Array as="points">
              <mxPoint x="460" y="200" />
            </Array>
          </mxGeometry>
        </mxCell>
        <mxCell id="uL9DYC248e5tSGVO9qfN-7" style="edgeStyle=orthogonalEdgeStyle;rounded=0;orthogonalLoop=1;jettySize=auto;html=1;exitX=0;exitY=0.25;exitDx=0;exitDy=0;entryX=1;entryY=0.25;entryDx=0;entryDy=0;" parent="1" source="QW94PPXgsl6Kzke8XjY0-1" target="lSE5mExSeNMDl4p-Yw-g-6" edge="1">
          <mxGeometry relative="1" as="geometry">
            <Array as="points">
              <mxPoint x="380" y="490" />
              <mxPoint x="380" y="410" />
            </Array>
          </mxGeometry>
        </mxCell>
        <mxCell id="W5Z1fbaDE1aw0kc6kPPc-12" style="edgeStyle=orthogonalEdgeStyle;rounded=0;orthogonalLoop=1;jettySize=auto;html=1;exitX=0.5;exitY=1;exitDx=0;exitDy=0;entryX=1;entryY=0.5;entryDx=0;entryDy=0;" parent="1" source="QW94PPXgsl6Kzke8XjY0-1" target="uL9DYC248e5tSGVO9qfN-1" edge="1">
          <mxGeometry relative="1" as="geometry" />
        </mxCell>
        <mxCell id="QW94PPXgsl6Kzke8XjY0-1" value="IMain Controller" style="whiteSpace=wrap;html=1;aspect=fixed;" parent="1" vertex="1">
          <mxGeometry x="390" y="470" width="80" height="80" as="geometry" />
        </mxCell>
        <mxCell id="QW94PPXgsl6Kzke8XjY0-4" style="edgeStyle=orthogonalEdgeStyle;rounded=0;orthogonalLoop=1;jettySize=auto;html=1;" parent="1" source="QW94PPXgsl6Kzke8XjY0-2" target="lSE5mExSeNMDl4p-Yw-g-11" edge="1">
          <mxGeometry relative="1" as="geometry">
            <Array as="points">
              <mxPoint x="170" y="160" />
            </Array>
          </mxGeometry>
        </mxCell>
        <mxCell id="QW94PPXgsl6Kzke8XjY0-12" style="edgeStyle=orthogonalEdgeStyle;rounded=0;orthogonalLoop=1;jettySize=auto;html=1;exitX=1;exitY=0.25;exitDx=0;exitDy=0;entryX=0;entryY=0.25;entryDx=0;entryDy=0;" parent="1" source="QW94PPXgsl6Kzke8XjY0-2" target="lSE5mExSeNMDl4p-Yw-g-6" edge="1">
          <mxGeometry relative="1" as="geometry">
            <Array as="points">
              <mxPoint x="240" y="480" />
              <mxPoint x="240" y="410" />
            </Array>
          </mxGeometry>
        </mxCell>
        <mxCell id="W5Z1fbaDE1aw0kc6kPPc-11" style="edgeStyle=orthogonalEdgeStyle;rounded=0;orthogonalLoop=1;jettySize=auto;html=1;exitX=0.5;exitY=1;exitDx=0;exitDy=0;entryX=0;entryY=0.5;entryDx=0;entryDy=0;" parent="1" source="QW94PPXgsl6Kzke8XjY0-2" target="uL9DYC248e5tSGVO9qfN-1" edge="1">
          <mxGeometry relative="1" as="geometry" />
        </mxCell>
        <mxCell id="QW94PPXgsl6Kzke8XjY0-2" value="IAuth Controller" style="whiteSpace=wrap;html=1;aspect=fixed;" parent="1" vertex="1">
          <mxGeometry x="150" y="460" width="80" height="80" as="geometry" />
        </mxCell>
        <mxCell id="QW94PPXgsl6Kzke8XjY0-15" style="edgeStyle=orthogonalEdgeStyle;rounded=0;orthogonalLoop=1;jettySize=auto;html=1;exitX=0;exitY=0.75;exitDx=0;exitDy=0;entryX=1;entryY=0.5;entryDx=0;entryDy=0;" parent="1" source="lSE5mExSeNMDl4p-Yw-g-6" target="QW94PPXgsl6Kzke8XjY0-2" edge="1">
          <mxGeometry relative="1" as="geometry" />
        </mxCell>
        <mxCell id="QW94PPXgsl6Kzke8XjY0-17" style="edgeStyle=orthogonalEdgeStyle;rounded=0;orthogonalLoop=1;jettySize=auto;html=1;exitX=1;exitY=0.75;exitDx=0;exitDy=0;entryX=0;entryY=0.5;entryDx=0;entryDy=0;" parent="1" source="lSE5mExSeNMDl4p-Yw-g-6" target="QW94PPXgsl6Kzke8XjY0-1" edge="1">
          <mxGeometry relative="1" as="geometry" />
        </mxCell>
        <mxCell id="W5Z1fbaDE1aw0kc6kPPc-13" style="edgeStyle=orthogonalEdgeStyle;rounded=0;orthogonalLoop=1;jettySize=auto;html=1;exitX=0;exitY=0.5;exitDx=0;exitDy=0;entryX=0.5;entryY=1;entryDx=0;entryDy=0;" parent="1" source="uL9DYC248e5tSGVO9qfN-1" target="QW94PPXgsl6Kzke8XjY0-2" edge="1">
          <mxGeometry relative="1" as="geometry" />
        </mxCell>
        <mxCell id="W5Z1fbaDE1aw0kc6kPPc-14" style="edgeStyle=orthogonalEdgeStyle;rounded=0;orthogonalLoop=1;jettySize=auto;html=1;exitX=1;exitY=0.5;exitDx=0;exitDy=0;entryX=0.5;entryY=1;entryDx=0;entryDy=0;" parent="1" source="uL9DYC248e5tSGVO9qfN-1" target="QW94PPXgsl6Kzke8XjY0-1" edge="1">
          <mxGeometry relative="1" as="geometry" />
        </mxCell>
        <mxCell id="W5Z1fbaDE1aw0kc6kPPc-17" style="edgeStyle=orthogonalEdgeStyle;rounded=0;orthogonalLoop=1;jettySize=auto;html=1;exitX=0.5;exitY=1;exitDx=0;exitDy=0;entryX=0.5;entryY=0;entryDx=0;entryDy=0;startArrow=classic;startFill=1;" parent="1" source="uL9DYC248e5tSGVO9qfN-1" target="lSE5mExSeNMDl4p-Yw-g-8" edge="1">
          <mxGeometry relative="1" as="geometry" />
        </mxCell>
        <mxCell id="uL9DYC248e5tSGVO9qfN-1" value="IUserInterface&lt;div&gt;Controller&lt;/div&gt;" style="whiteSpace=wrap;html=1;aspect=fixed;" parent="1" vertex="1">
          <mxGeometry x="270" y="560" width="80" height="80" as="geometry" />
        </mxCell>
        <mxCell id="W5Z1fbaDE1aw0kc6kPPc-2" value="" style="edgeStyle=orthogonalEdgeStyle;rounded=0;orthogonalLoop=1;jettySize=auto;html=1;" parent="1" source="W5Z1fbaDE1aw0kc6kPPc-1" target="lSE5mExSeNMDl4p-Yw-g-11" edge="1">
          <mxGeometry relative="1" as="geometry" />
        </mxCell>
        <mxCell id="W5Z1fbaDE1aw0kc6kPPc-7" value="" style="edgeStyle=orthogonalEdgeStyle;rounded=0;orthogonalLoop=1;jettySize=auto;html=1;" parent="1" source="W5Z1fbaDE1aw0kc6kPPc-1" target="lSE5mExSeNMDl4p-Yw-g-10" edge="1">
          <mxGeometry relative="1" as="geometry">
            <Array as="points">
              <mxPoint x="720" y="180" />
              <mxPoint x="720" y="180" />
            </Array>
          </mxGeometry>
        </mxCell>
        <mxCell id="W5Z1fbaDE1aw0kc6kPPc-1" value="DB&amp;nbsp;&lt;div&gt;Interaction&lt;br&gt;Interface&lt;/div&gt;" style="whiteSpace=wrap;html=1;aspect=fixed;" parent="1" vertex="1">
          <mxGeometry x="610" y="140" width="80" height="80" as="geometry" />
        </mxCell>
      </root>
    </mxGraphModel>
  </diagram>
  <diagram id="sEssbHwlbgJHX8Evl6nH" name="Страница — 2">
    <mxGraphModel dx="705" dy="457" grid="1" gridSize="10" guides="1" tooltips="1" connect="1" arrows="1" fold="1" page="1" pageScale="1" pageWidth="827" pageHeight="1169" math="0" shadow="0">
      <root>
        <mxCell id="0" />
        <mxCell id="1" parent="0" />
        <mxCell id="HCyedAm7QRp5QqnXwtZA-12" style="edgeStyle=orthogonalEdgeStyle;rounded=0;orthogonalLoop=1;jettySize=auto;html=1;entryX=0.75;entryY=0;entryDx=0;entryDy=0;" parent="1" source="HCyedAm7QRp5QqnXwtZA-2" target="HCyedAm7QRp5QqnXwtZA-3" edge="1">
          <mxGeometry relative="1" as="geometry" />
        </mxCell>
        <mxCell id="HCyedAm7QRp5QqnXwtZA-2" value="DB" style="shape=cylinder3;whiteSpace=wrap;html=1;boundedLbl=1;backgroundOutline=1;size=15;" parent="1" vertex="1">
          <mxGeometry x="240" y="10" width="60" height="80" as="geometry" />
        </mxCell>
        <mxCell id="S-qYhKc-CwWBHnrpPGf1-1" style="edgeStyle=orthogonalEdgeStyle;rounded=0;orthogonalLoop=1;jettySize=auto;html=1;entryX=0.5;entryY=0;entryDx=0;entryDy=0;exitX=1.006;exitY=0.613;exitDx=0;exitDy=0;exitPerimeter=0;" edge="1" parent="1" source="HCyedAm7QRp5QqnXwtZA-3" target="HCyedAm7QRp5QqnXwtZA-13">
          <mxGeometry relative="1" as="geometry" />
        </mxCell>
        <mxCell id="1Zyh3FIZRMYBIETgBJdd-2" style="edgeStyle=orthogonalEdgeStyle;rounded=0;orthogonalLoop=1;jettySize=auto;html=1;entryX=0.5;entryY=0;entryDx=0;entryDy=0;" edge="1" parent="1" source="HCyedAm7QRp5QqnXwtZA-3" target="S-qYhKc-CwWBHnrpPGf1-2">
          <mxGeometry relative="1" as="geometry" />
        </mxCell>
        <mxCell id="HCyedAm7QRp5QqnXwtZA-3" value="DB&amp;nbsp;&lt;div&gt;Interaction&lt;br&gt;Interface&lt;/div&gt;" style="whiteSpace=wrap;html=1;aspect=fixed;" parent="1" vertex="1">
          <mxGeometry x="230" y="160" width="80" height="80" as="geometry" />
        </mxCell>
        <mxCell id="HCyedAm7QRp5QqnXwtZA-4" style="edgeStyle=orthogonalEdgeStyle;rounded=0;orthogonalLoop=1;jettySize=auto;html=1;entryX=0;entryY=0;entryDx=0;entryDy=27.5;entryPerimeter=0;" parent="1" source="HCyedAm7QRp5QqnXwtZA-3" target="HCyedAm7QRp5QqnXwtZA-2" edge="1">
          <mxGeometry relative="1" as="geometry">
            <Array as="points">
              <mxPoint x="240" y="125" />
              <mxPoint x="210" y="125" />
              <mxPoint x="210" y="38" />
            </Array>
          </mxGeometry>
        </mxCell>
        <mxCell id="HCyedAm7QRp5QqnXwtZA-8" value="Save(User user, Diary diary);" style="rounded=0;whiteSpace=wrap;html=1;" parent="1" vertex="1">
          <mxGeometry x="10" y="290" width="120" height="60" as="geometry" />
        </mxCell>
        <mxCell id="HCyedAm7QRp5QqnXwtZA-9" value="Save(Diary diary);" style="rounded=0;whiteSpace=wrap;html=1;" parent="1" vertex="1">
          <mxGeometry x="140" y="290" width="120" height="60" as="geometry" />
        </mxCell>
        <mxCell id="HCyedAm7QRp5QqnXwtZA-10" style="edgeStyle=orthogonalEdgeStyle;rounded=0;orthogonalLoop=1;jettySize=auto;html=1;entryX=0.405;entryY=0.031;entryDx=0;entryDy=0;entryPerimeter=0;" parent="1" source="HCyedAm7QRp5QqnXwtZA-3" target="HCyedAm7QRp5QqnXwtZA-8" edge="1">
          <mxGeometry relative="1" as="geometry" />
        </mxCell>
        <mxCell id="HCyedAm7QRp5QqnXwtZA-11" style="edgeStyle=orthogonalEdgeStyle;rounded=0;orthogonalLoop=1;jettySize=auto;html=1;entryX=0.422;entryY=0.044;entryDx=0;entryDy=0;entryPerimeter=0;" parent="1" source="HCyedAm7QRp5QqnXwtZA-3" target="HCyedAm7QRp5QqnXwtZA-9" edge="1">
          <mxGeometry relative="1" as="geometry">
            <Array as="points">
              <mxPoint x="220" y="200" />
              <mxPoint x="220" y="265" />
              <mxPoint x="191" y="265" />
            </Array>
          </mxGeometry>
        </mxCell>
        <mxCell id="HCyedAm7QRp5QqnXwtZA-13" value="TryLoadUser(string login);" style="rounded=0;whiteSpace=wrap;html=1;" parent="1" vertex="1">
          <mxGeometry x="300" y="290" width="120" height="60" as="geometry" />
        </mxCell>
        <mxCell id="S-qYhKc-CwWBHnrpPGf1-2" value="TryLoadDiary(int Id);" style="rounded=0;whiteSpace=wrap;html=1;" vertex="1" parent="1">
          <mxGeometry x="470" y="290" width="120" height="60" as="geometry" />
        </mxCell>
        <mxCell id="1Zyh3FIZRMYBIETgBJdd-1" value="DB info" style="rhombus;whiteSpace=wrap;html=1;" vertex="1" parent="1">
          <mxGeometry x="390" y="50" width="80" height="80" as="geometry" />
        </mxCell>
      </root>
    </mxGraphModel>
  </diagram>
  <diagram id="liVZ3g5b2LHS5QET6rYU" name="Страница — 3">
    <mxGraphModel dx="1344" dy="335" grid="1" gridSize="10" guides="1" tooltips="1" connect="1" arrows="1" fold="1" page="1" pageScale="1" pageWidth="827" pageHeight="1169" math="0" shadow="0">
      <root>
        <mxCell id="0" />
        <mxCell id="1" parent="0" />
        <mxCell id="bHW5ps8ldC-G8NDcM_M1-2" value="User Interaction&lt;div&gt;Interface&lt;/div&gt;" style="whiteSpace=wrap;html=1;aspect=fixed;" parent="1" vertex="1">
          <mxGeometry x="280" y="170" width="80" height="80" as="geometry" />
        </mxCell>
        <mxCell id="bHW5ps8ldC-G8NDcM_M1-8" style="edgeStyle=orthogonalEdgeStyle;rounded=0;orthogonalLoop=1;jettySize=auto;html=1;entryX=0.5;entryY=0;entryDx=0;entryDy=0;" parent="1" source="bHW5ps8ldC-G8NDcM_M1-5" target="DbiIYYR9RFY9QrXzw_fp-29" edge="1">
          <mxGeometry relative="1" as="geometry">
            <mxPoint x="-60" y="680" as="targetPoint" />
          </mxGeometry>
        </mxCell>
        <mxCell id="bHW5ps8ldC-G8NDcM_M1-5" value="Registration" style="rounded=0;whiteSpace=wrap;html=1;" parent="1" vertex="1">
          <mxGeometry x="-130" y="480" width="120" height="60" as="geometry" />
        </mxCell>
        <mxCell id="bHW5ps8ldC-G8NDcM_M1-17" style="edgeStyle=orthogonalEdgeStyle;rounded=0;orthogonalLoop=1;jettySize=auto;html=1;" parent="1" target="bHW5ps8ldC-G8NDcM_M1-9" edge="1">
          <mxGeometry relative="1" as="geometry">
            <mxPoint x="-60" y="740" as="sourcePoint" />
          </mxGeometry>
        </mxCell>
        <mxCell id="bHW5ps8ldC-G8NDcM_M1-27" style="edgeStyle=orthogonalEdgeStyle;rounded=0;orthogonalLoop=1;jettySize=auto;html=1;entryX=0.474;entryY=0.929;entryDx=0;entryDy=0;entryPerimeter=0;" parent="1" source="bHW5ps8ldC-G8NDcM_M1-9" target="DbiIYYR9RFY9QrXzw_fp-14" edge="1">
          <mxGeometry relative="1" as="geometry">
            <mxPoint x="-220" y="810" as="targetPoint" />
            <Array as="points">
              <mxPoint x="-125" y="830" />
              <mxPoint x="-125" y="870" />
              <mxPoint x="-213" y="870" />
            </Array>
          </mxGeometry>
        </mxCell>
        <mxCell id="bHW5ps8ldC-G8NDcM_M1-28" value="YES" style="edgeLabel;html=1;align=center;verticalAlign=middle;resizable=0;points=[];" parent="bHW5ps8ldC-G8NDcM_M1-27" vertex="1" connectable="0">
          <mxGeometry x="-0.2032" y="3" relative="1" as="geometry">
            <mxPoint as="offset" />
          </mxGeometry>
        </mxCell>
        <mxCell id="bHW5ps8ldC-G8NDcM_M1-9" value="login exist?" style="rhombus;whiteSpace=wrap;html=1;" parent="1" vertex="1">
          <mxGeometry x="-100" y="790" width="80" height="80" as="geometry" />
        </mxCell>
        <mxCell id="bHW5ps8ldC-G8NDcM_M1-12" style="edgeStyle=orthogonalEdgeStyle;rounded=0;orthogonalLoop=1;jettySize=auto;html=1;entryX=0;entryY=0;entryDx=0;entryDy=25;exitX=0.5;exitY=0;exitDx=0;exitDy=0;exitPerimeter=0;entryPerimeter=0;" parent="1" source="DbiIYYR9RFY9QrXzw_fp-14" target="DbiIYYR9RFY9QrXzw_fp-10" edge="1">
          <mxGeometry relative="1" as="geometry">
            <mxPoint x="-220" y="750" as="sourcePoint" />
          </mxGeometry>
        </mxCell>
        <mxCell id="bHW5ps8ldC-G8NDcM_M1-18" value="Save(User)" style="rounded=0;whiteSpace=wrap;html=1;" parent="1" vertex="1">
          <mxGeometry x="-120" y="1120" width="120" height="60" as="geometry" />
        </mxCell>
        <mxCell id="DbiIYYR9RFY9QrXzw_fp-33" value="" style="edgeStyle=orthogonalEdgeStyle;rounded=0;orthogonalLoop=1;jettySize=auto;html=1;" parent="1" source="bHW5ps8ldC-G8NDcM_M1-22" target="DbiIYYR9RFY9QrXzw_fp-11" edge="1">
          <mxGeometry relative="1" as="geometry" />
        </mxCell>
        <mxCell id="bHW5ps8ldC-G8NDcM_M1-22" value="Login" style="rounded=0;whiteSpace=wrap;html=1;" parent="1" vertex="1">
          <mxGeometry x="250" y="500" width="120" height="60" as="geometry" />
        </mxCell>
        <mxCell id="bHW5ps8ldC-G8NDcM_M1-38" style="edgeStyle=orthogonalEdgeStyle;rounded=0;orthogonalLoop=1;jettySize=auto;html=1;entryX=0;entryY=0;entryDx=60;entryDy=80;entryPerimeter=0;" parent="1" source="bHW5ps8ldC-G8NDcM_M1-30" target="DbiIYYR9RFY9QrXzw_fp-15" edge="1">
          <mxGeometry relative="1" as="geometry">
            <mxPoint x="420" y="790" as="targetPoint" />
          </mxGeometry>
        </mxCell>
        <mxCell id="bHW5ps8ldC-G8NDcM_M1-40" value="NO" style="edgeLabel;html=1;align=center;verticalAlign=middle;resizable=0;points=[];" parent="bHW5ps8ldC-G8NDcM_M1-38" vertex="1" connectable="0">
          <mxGeometry x="-0.2994" y="-2" relative="1" as="geometry">
            <mxPoint as="offset" />
          </mxGeometry>
        </mxCell>
        <mxCell id="DbiIYYR9RFY9QrXzw_fp-44" value="" style="edgeStyle=orthogonalEdgeStyle;rounded=0;orthogonalLoop=1;jettySize=auto;html=1;" parent="1" source="bHW5ps8ldC-G8NDcM_M1-30" target="DbiIYYR9RFY9QrXzw_fp-20" edge="1">
          <mxGeometry relative="1" as="geometry">
            <Array as="points">
              <mxPoint x="270" y="890" />
              <mxPoint x="400" y="890" />
            </Array>
          </mxGeometry>
        </mxCell>
        <mxCell id="DbiIYYR9RFY9QrXzw_fp-46" value="YES" style="edgeLabel;html=1;align=center;verticalAlign=middle;resizable=0;points=[];" parent="DbiIYYR9RFY9QrXzw_fp-44" vertex="1" connectable="0">
          <mxGeometry x="-0.41" relative="1" as="geometry">
            <mxPoint as="offset" />
          </mxGeometry>
        </mxCell>
        <mxCell id="bHW5ps8ldC-G8NDcM_M1-30" value="login exist?" style="rhombus;whiteSpace=wrap;html=1;" parent="1" vertex="1">
          <mxGeometry x="230" y="790" width="80" height="80" as="geometry" />
        </mxCell>
        <mxCell id="bHW5ps8ldC-G8NDcM_M1-39" style="edgeStyle=orthogonalEdgeStyle;rounded=0;orthogonalLoop=1;jettySize=auto;html=1;entryX=0;entryY=0;entryDx=120.00000000000001;entryDy=25;exitX=0.022;exitY=0.495;exitDx=0;exitDy=0;exitPerimeter=0;entryPerimeter=0;" parent="1" source="DbiIYYR9RFY9QrXzw_fp-15" target="DbiIYYR9RFY9QrXzw_fp-11" edge="1">
          <mxGeometry relative="1" as="geometry">
            <mxPoint x="360" y="760.047619047619" as="sourcePoint" />
          </mxGeometry>
        </mxCell>
        <mxCell id="bHW5ps8ldC-G8NDcM_M1-45" style="edgeStyle=orthogonalEdgeStyle;rounded=0;orthogonalLoop=1;jettySize=auto;html=1;entryX=0;entryY=0;entryDx=60;entryDy=80;entryPerimeter=0;" parent="1" source="bHW5ps8ldC-G8NDcM_M1-41" target="DbiIYYR9RFY9QrXzw_fp-21" edge="1">
          <mxGeometry relative="1" as="geometry">
            <mxPoint x="560" y="1180" as="targetPoint" />
          </mxGeometry>
        </mxCell>
        <mxCell id="bHW5ps8ldC-G8NDcM_M1-46" value="NO" style="edgeLabel;html=1;align=center;verticalAlign=middle;resizable=0;points=[];" parent="bHW5ps8ldC-G8NDcM_M1-45" vertex="1" connectable="0">
          <mxGeometry x="-0.4429" relative="1" as="geometry">
            <mxPoint as="offset" />
          </mxGeometry>
        </mxCell>
        <mxCell id="bHW5ps8ldC-G8NDcM_M1-48" style="edgeStyle=orthogonalEdgeStyle;rounded=0;orthogonalLoop=1;jettySize=auto;html=1;entryX=0.5;entryY=0;entryDx=0;entryDy=0;" parent="1" source="bHW5ps8ldC-G8NDcM_M1-41" target="H76CbdqIO5qQEprUSBtJ-1" edge="1">
          <mxGeometry relative="1" as="geometry">
            <mxPoint x="100" y="1180" as="targetPoint" />
          </mxGeometry>
        </mxCell>
        <mxCell id="bHW5ps8ldC-G8NDcM_M1-49" value="YES" style="edgeLabel;html=1;align=center;verticalAlign=middle;resizable=0;points=[];" parent="bHW5ps8ldC-G8NDcM_M1-48" vertex="1" connectable="0">
          <mxGeometry x="-0.1815" y="2" relative="1" as="geometry">
            <mxPoint as="offset" />
          </mxGeometry>
        </mxCell>
        <mxCell id="bHW5ps8ldC-G8NDcM_M1-41" value="correct?" style="rhombus;whiteSpace=wrap;html=1;" parent="1" vertex="1">
          <mxGeometry x="360" y="1180" width="80" height="80" as="geometry" />
        </mxCell>
        <mxCell id="bHW5ps8ldC-G8NDcM_M1-44" style="edgeStyle=orthogonalEdgeStyle;rounded=0;orthogonalLoop=1;jettySize=auto;html=1;entryX=0;entryY=0;entryDx=120.00000000000001;entryDy=25;exitX=0;exitY=0;exitDx=0;exitDy=25;exitPerimeter=0;entryPerimeter=0;" parent="1" source="DbiIYYR9RFY9QrXzw_fp-21" target="DbiIYYR9RFY9QrXzw_fp-20" edge="1">
          <mxGeometry relative="1" as="geometry">
            <mxPoint x="500" y="1150.0526315789473" as="sourcePoint" />
          </mxGeometry>
        </mxCell>
        <mxCell id="bHW5ps8ldC-G8NDcM_M1-63" value="" style="edgeStyle=orthogonalEdgeStyle;rounded=0;orthogonalLoop=1;jettySize=auto;html=1;entryX=0;entryY=0;entryDx=0;entryDy=25;entryPerimeter=0;" parent="1" source="bHW5ps8ldC-G8NDcM_M1-56" target="DbiIYYR9RFY9QrXzw_fp-27" edge="1">
          <mxGeometry relative="1" as="geometry">
            <mxPoint x="430" y="1646.46" as="targetPoint" />
          </mxGeometry>
        </mxCell>
        <mxCell id="DbiIYYR9RFY9QrXzw_fp-28" value="DATA" style="edgeLabel;html=1;align=center;verticalAlign=middle;resizable=0;points=[];" parent="bHW5ps8ldC-G8NDcM_M1-63" vertex="1" connectable="0">
          <mxGeometry x="-0.4169" y="-3" relative="1" as="geometry">
            <mxPoint as="offset" />
          </mxGeometry>
        </mxCell>
        <mxCell id="bHW5ps8ldC-G8NDcM_M1-69" value="" style="edgeStyle=orthogonalEdgeStyle;rounded=0;orthogonalLoop=1;jettySize=auto;html=1;" parent="1" source="bHW5ps8ldC-G8NDcM_M1-56" target="bHW5ps8ldC-G8NDcM_M1-68" edge="1">
          <mxGeometry relative="1" as="geometry" />
        </mxCell>
        <mxCell id="bHW5ps8ldC-G8NDcM_M1-56" value="quit or data" style="rhombus;whiteSpace=wrap;html=1;rounded=0;" parent="1" vertex="1">
          <mxGeometry x="180" y="1626.46" width="80" height="80" as="geometry" />
        </mxCell>
        <mxCell id="bHW5ps8ldC-G8NDcM_M1-60" style="edgeStyle=orthogonalEdgeStyle;rounded=0;orthogonalLoop=1;jettySize=auto;html=1;exitX=0;exitY=0.5;exitDx=0;exitDy=0;entryX=0.5;entryY=0;entryDx=0;entryDy=0;entryPerimeter=0;" parent="1" source="bHW5ps8ldC-G8NDcM_M1-56" target="DbiIYYR9RFY9QrXzw_fp-1" edge="1">
          <mxGeometry relative="1" as="geometry">
            <mxPoint x="-60" y="1686.46" as="sourcePoint" />
            <mxPoint x="130" y="340" as="targetPoint" />
            <Array as="points">
              <mxPoint x="-170" y="1667" />
              <mxPoint x="-170" y="1420" />
              <mxPoint x="-610" y="1420" />
              <mxPoint x="-610" y="290" />
              <mxPoint x="120" y="290" />
            </Array>
          </mxGeometry>
        </mxCell>
        <mxCell id="bHW5ps8ldC-G8NDcM_M1-61" value="QUIT" style="edgeLabel;html=1;align=center;verticalAlign=middle;resizable=0;points=[];" parent="bHW5ps8ldC-G8NDcM_M1-60" vertex="1" connectable="0">
          <mxGeometry x="-0.9153" y="-4" relative="1" as="geometry">
            <mxPoint as="offset" />
          </mxGeometry>
        </mxCell>
        <mxCell id="bHW5ps8ldC-G8NDcM_M1-66" value="" style="edgeStyle=orthogonalEdgeStyle;rounded=0;orthogonalLoop=1;jettySize=auto;html=1;exitX=0;exitY=0;exitDx=120;exitDy=25;exitPerimeter=0;" parent="1" source="DbiIYYR9RFY9QrXzw_fp-27" target="bHW5ps8ldC-G8NDcM_M1-65" edge="1">
          <mxGeometry relative="1" as="geometry">
            <mxPoint x="550" y="1646.46" as="sourcePoint" />
          </mxGeometry>
        </mxCell>
        <mxCell id="bHW5ps8ldC-G8NDcM_M1-65" value="enter anything?" style="rhombus;whiteSpace=wrap;html=1;rounded=0;" parent="1" vertex="1">
          <mxGeometry x="650" y="1606.46" width="80" height="80" as="geometry" />
        </mxCell>
        <mxCell id="DbiIYYR9RFY9QrXzw_fp-25" value="" style="edgeStyle=orthogonalEdgeStyle;rounded=0;orthogonalLoop=1;jettySize=auto;html=1;" parent="1" source="bHW5ps8ldC-G8NDcM_M1-68" target="bHW5ps8ldC-G8NDcM_M1-71" edge="1">
          <mxGeometry relative="1" as="geometry" />
        </mxCell>
        <mxCell id="bHW5ps8ldC-G8NDcM_M1-68" value="Save(Diary)" style="whiteSpace=wrap;html=1;rounded=0;" parent="1" vertex="1">
          <mxGeometry x="160" y="1776.46" width="120" height="60" as="geometry" />
        </mxCell>
        <mxCell id="bHW5ps8ldC-G8NDcM_M1-71" value="Entry Saved!" style="shape=callout;whiteSpace=wrap;html=1;perimeter=calloutPerimeter;" parent="1" vertex="1">
          <mxGeometry x="380" y="1730" width="120" height="80" as="geometry" />
        </mxCell>
        <mxCell id="DbiIYYR9RFY9QrXzw_fp-2" value="" style="edgeStyle=orthogonalEdgeStyle;rounded=0;orthogonalLoop=1;jettySize=auto;html=1;entryX=0.5;entryY=0;entryDx=0;entryDy=0;" parent="1" source="bHW5ps8ldC-G8NDcM_M1-18" target="DbiIYYR9RFY9QrXzw_fp-1" edge="1">
          <mxGeometry relative="1" as="geometry">
            <mxPoint x="-120" y="1070" as="sourcePoint" />
            <mxPoint x="120" y="440" as="targetPoint" />
            <Array as="points">
              <mxPoint x="-300" y="1160" />
              <mxPoint x="-300" y="310" />
              <mxPoint x="120" y="310" />
            </Array>
          </mxGeometry>
        </mxCell>
        <mxCell id="DbiIYYR9RFY9QrXzw_fp-3" style="edgeStyle=orthogonalEdgeStyle;rounded=0;orthogonalLoop=1;jettySize=auto;html=1;entryX=0.5;entryY=0;entryDx=0;entryDy=0;" parent="1" source="DbiIYYR9RFY9QrXzw_fp-1" edge="1">
          <mxGeometry relative="1" as="geometry">
            <mxPoint x="110" y="500" as="targetPoint" />
          </mxGeometry>
        </mxCell>
        <mxCell id="DbiIYYR9RFY9QrXzw_fp-1" value="Register or Login?" style="shape=callout;whiteSpace=wrap;html=1;perimeter=calloutPerimeter;" parent="1" vertex="1">
          <mxGeometry x="60" y="350" width="120" height="80" as="geometry" />
        </mxCell>
        <mxCell id="DbiIYYR9RFY9QrXzw_fp-5" value="" style="edgeStyle=orthogonalEdgeStyle;rounded=0;orthogonalLoop=1;jettySize=auto;html=1;" parent="1" source="DbiIYYR9RFY9QrXzw_fp-4" target="bHW5ps8ldC-G8NDcM_M1-22" edge="1">
          <mxGeometry relative="1" as="geometry" />
        </mxCell>
        <mxCell id="DbiIYYR9RFY9QrXzw_fp-9" value="log" style="edgeLabel;html=1;align=center;verticalAlign=middle;resizable=0;points=[];" parent="DbiIYYR9RFY9QrXzw_fp-5" vertex="1" connectable="0">
          <mxGeometry x="-0.3888" y="2" relative="1" as="geometry">
            <mxPoint as="offset" />
          </mxGeometry>
        </mxCell>
        <mxCell id="DbiIYYR9RFY9QrXzw_fp-7" value="" style="edgeStyle=orthogonalEdgeStyle;rounded=0;orthogonalLoop=1;jettySize=auto;html=1;" parent="1" source="DbiIYYR9RFY9QrXzw_fp-4" target="bHW5ps8ldC-G8NDcM_M1-5" edge="1">
          <mxGeometry relative="1" as="geometry" />
        </mxCell>
        <mxCell id="DbiIYYR9RFY9QrXzw_fp-8" value="reg" style="edgeLabel;html=1;align=center;verticalAlign=middle;resizable=0;points=[];" parent="DbiIYYR9RFY9QrXzw_fp-7" vertex="1" connectable="0">
          <mxGeometry x="-0.4234" y="1" relative="1" as="geometry">
            <mxPoint as="offset" />
          </mxGeometry>
        </mxCell>
        <mxCell id="DbiIYYR9RFY9QrXzw_fp-4" value="Register or Login?" style="rhombus;whiteSpace=wrap;html=1;" parent="1" vertex="1">
          <mxGeometry x="50" y="500" width="110" height="80" as="geometry" />
        </mxCell>
        <mxCell id="DbiIYYR9RFY9QrXzw_fp-10" value="please enter login" style="shape=callout;whiteSpace=wrap;html=1;perimeter=calloutPerimeter;" parent="1" vertex="1">
          <mxGeometry x="-120" y="580" width="120" height="80" as="geometry" />
        </mxCell>
        <mxCell id="DbiIYYR9RFY9QrXzw_fp-36" style="edgeStyle=orthogonalEdgeStyle;rounded=0;orthogonalLoop=1;jettySize=auto;html=1;exitX=0;exitY=0;exitDx=0;exitDy=25;exitPerimeter=0;entryX=0;entryY=0.5;entryDx=0;entryDy=0;" parent="1" source="DbiIYYR9RFY9QrXzw_fp-11" target="DbiIYYR9RFY9QrXzw_fp-32" edge="1">
          <mxGeometry relative="1" as="geometry" />
        </mxCell>
        <mxCell id="DbiIYYR9RFY9QrXzw_fp-11" value="please enter login" style="shape=callout;whiteSpace=wrap;html=1;perimeter=calloutPerimeter;" parent="1" vertex="1">
          <mxGeometry x="260" y="590" width="120" height="80" as="geometry" />
        </mxCell>
        <mxCell id="DbiIYYR9RFY9QrXzw_fp-14" value="login exist!" style="shape=callout;whiteSpace=wrap;html=1;perimeter=calloutPerimeter;" parent="1" vertex="1">
          <mxGeometry x="-270" y="740" width="120" height="80" as="geometry" />
        </mxCell>
        <mxCell id="DbiIYYR9RFY9QrXzw_fp-15" value="no such login!" style="shape=callout;whiteSpace=wrap;html=1;perimeter=calloutPerimeter;" parent="1" vertex="1">
          <mxGeometry x="360" y="720" width="120" height="80" as="geometry" />
        </mxCell>
        <mxCell id="DbiIYYR9RFY9QrXzw_fp-17" value="" style="edgeStyle=orthogonalEdgeStyle;rounded=0;orthogonalLoop=1;jettySize=auto;html=1;exitX=0.5;exitY=1;exitDx=0;exitDy=0;entryX=0.5;entryY=0;entryDx=0;entryDy=0;" parent="1" source="bHW5ps8ldC-G8NDcM_M1-9" target="DbiIYYR9RFY9QrXzw_fp-16" edge="1">
          <mxGeometry relative="1" as="geometry">
            <mxPoint x="-60" y="870" as="sourcePoint" />
            <mxPoint x="-60" y="1020" as="targetPoint" />
          </mxGeometry>
        </mxCell>
        <mxCell id="DbiIYYR9RFY9QrXzw_fp-18" value="NO" style="edgeLabel;html=1;align=center;verticalAlign=middle;resizable=0;points=[];" parent="DbiIYYR9RFY9QrXzw_fp-17" vertex="1" connectable="0">
          <mxGeometry x="-0.1714" relative="1" as="geometry">
            <mxPoint y="-32" as="offset" />
          </mxGeometry>
        </mxCell>
        <mxCell id="DbiIYYR9RFY9QrXzw_fp-41" style="edgeStyle=orthogonalEdgeStyle;rounded=0;orthogonalLoop=1;jettySize=auto;html=1;entryX=0.5;entryY=0;entryDx=0;entryDy=0;" parent="1" source="DbiIYYR9RFY9QrXzw_fp-16" target="DbiIYYR9RFY9QrXzw_fp-40" edge="1">
          <mxGeometry relative="1" as="geometry" />
        </mxCell>
        <mxCell id="DbiIYYR9RFY9QrXzw_fp-16" value="please enter password" style="shape=callout;whiteSpace=wrap;html=1;perimeter=calloutPerimeter;" parent="1" vertex="1">
          <mxGeometry x="-120" y="920" width="120" height="80" as="geometry" />
        </mxCell>
        <mxCell id="DbiIYYR9RFY9QrXzw_fp-19" value="reg completed!" style="shape=callout;whiteSpace=wrap;html=1;perimeter=calloutPerimeter;" parent="1" vertex="1">
          <mxGeometry x="-290" y="1130" width="120" height="80" as="geometry" />
        </mxCell>
        <mxCell id="DbiIYYR9RFY9QrXzw_fp-47" value="" style="edgeStyle=orthogonalEdgeStyle;rounded=0;orthogonalLoop=1;jettySize=auto;html=1;" parent="1" source="DbiIYYR9RFY9QrXzw_fp-20" target="DbiIYYR9RFY9QrXzw_fp-43" edge="1">
          <mxGeometry relative="1" as="geometry" />
        </mxCell>
        <mxCell id="DbiIYYR9RFY9QrXzw_fp-20" value="please enter password" style="shape=callout;whiteSpace=wrap;html=1;perimeter=calloutPerimeter;" parent="1" vertex="1">
          <mxGeometry x="340" y="980" width="120" height="80" as="geometry" />
        </mxCell>
        <mxCell id="DbiIYYR9RFY9QrXzw_fp-21" value="wrong password!" style="shape=callout;whiteSpace=wrap;html=1;perimeter=calloutPerimeter;" parent="1" vertex="1">
          <mxGeometry x="540" y="1080" width="120" height="80" as="geometry" />
        </mxCell>
        <mxCell id="DbiIYYR9RFY9QrXzw_fp-54" value="" style="edgeStyle=orthogonalEdgeStyle;rounded=0;orthogonalLoop=1;jettySize=auto;html=1;" parent="1" source="DbiIYYR9RFY9QrXzw_fp-22" target="DbiIYYR9RFY9QrXzw_fp-52" edge="1">
          <mxGeometry relative="1" as="geometry" />
        </mxCell>
        <mxCell id="DbiIYYR9RFY9QrXzw_fp-22" value="Current DATE!&lt;br&gt;Please enter entry" style="shape=callout;whiteSpace=wrap;html=1;perimeter=calloutPerimeter;" parent="1" vertex="1">
          <mxGeometry x="150" y="1440" width="120" height="80" as="geometry" />
        </mxCell>
        <mxCell id="DbiIYYR9RFY9QrXzw_fp-23" style="edgeStyle=orthogonalEdgeStyle;rounded=0;orthogonalLoop=1;jettySize=auto;html=1;exitX=0.5;exitY=0;exitDx=0;exitDy=0;entryX=0;entryY=0;entryDx=119.99999999999999;entryDy=25;entryPerimeter=0;" parent="1" source="bHW5ps8ldC-G8NDcM_M1-65" target="DbiIYYR9RFY9QrXzw_fp-22" edge="1">
          <mxGeometry relative="1" as="geometry">
            <mxPoint x="285.48" y="1480.06" as="targetPoint" />
          </mxGeometry>
        </mxCell>
        <mxCell id="DbiIYYR9RFY9QrXzw_fp-26" style="edgeStyle=orthogonalEdgeStyle;rounded=0;orthogonalLoop=1;jettySize=auto;html=1;exitX=0;exitY=0;exitDx=119.99999999999999;exitDy=25;exitPerimeter=0;entryX=0;entryY=0;entryDx=119.99999999999999;entryDy=25;entryPerimeter=0;" parent="1" source="bHW5ps8ldC-G8NDcM_M1-71" target="DbiIYYR9RFY9QrXzw_fp-22" edge="1">
          <mxGeometry relative="1" as="geometry">
            <Array as="points">
              <mxPoint x="750" y="1755" />
              <mxPoint x="750" y="1445" />
            </Array>
          </mxGeometry>
        </mxCell>
        <mxCell id="DbiIYYR9RFY9QrXzw_fp-27" value="Show All Entries" style="shape=callout;whiteSpace=wrap;html=1;perimeter=calloutPerimeter;" parent="1" vertex="1">
          <mxGeometry x="420" y="1606.46" width="120" height="80" as="geometry" />
        </mxCell>
        <mxCell id="DbiIYYR9RFY9QrXzw_fp-31" value="" style="edgeStyle=orthogonalEdgeStyle;rounded=0;orthogonalLoop=1;jettySize=auto;html=1;exitX=0.5;exitY=1;exitDx=0;exitDy=0;" parent="1" source="DbiIYYR9RFY9QrXzw_fp-29" target="bHW5ps8ldC-G8NDcM_M1-9" edge="1">
          <mxGeometry relative="1" as="geometry" />
        </mxCell>
        <mxCell id="DbiIYYR9RFY9QrXzw_fp-29" value="Login?" style="shape=parallelogram;perimeter=parallelogramPerimeter;whiteSpace=wrap;html=1;fixedSize=1;" parent="1" vertex="1">
          <mxGeometry x="-120" y="680" width="120" height="60" as="geometry" />
        </mxCell>
        <mxCell id="DbiIYYR9RFY9QrXzw_fp-38" style="edgeStyle=orthogonalEdgeStyle;rounded=0;orthogonalLoop=1;jettySize=auto;html=1;" parent="1" source="DbiIYYR9RFY9QrXzw_fp-32" target="bHW5ps8ldC-G8NDcM_M1-30" edge="1">
          <mxGeometry relative="1" as="geometry" />
        </mxCell>
        <mxCell id="DbiIYYR9RFY9QrXzw_fp-32" value="Login?" style="shape=parallelogram;perimeter=parallelogramPerimeter;whiteSpace=wrap;html=1;fixedSize=1;" parent="1" vertex="1">
          <mxGeometry x="210" y="680" width="120" height="60" as="geometry" />
        </mxCell>
        <mxCell id="DbiIYYR9RFY9QrXzw_fp-42" value="" style="edgeStyle=orthogonalEdgeStyle;rounded=0;orthogonalLoop=1;jettySize=auto;html=1;" parent="1" source="DbiIYYR9RFY9QrXzw_fp-40" target="bHW5ps8ldC-G8NDcM_M1-18" edge="1">
          <mxGeometry relative="1" as="geometry" />
        </mxCell>
        <mxCell id="DbiIYYR9RFY9QrXzw_fp-40" value="Password?" style="shape=parallelogram;perimeter=parallelogramPerimeter;whiteSpace=wrap;html=1;fixedSize=1;" parent="1" vertex="1">
          <mxGeometry x="-120" y="1030" width="120" height="60" as="geometry" />
        </mxCell>
        <mxCell id="DbiIYYR9RFY9QrXzw_fp-48" value="" style="edgeStyle=orthogonalEdgeStyle;rounded=0;orthogonalLoop=1;jettySize=auto;html=1;" parent="1" source="DbiIYYR9RFY9QrXzw_fp-43" target="bHW5ps8ldC-G8NDcM_M1-41" edge="1">
          <mxGeometry relative="1" as="geometry" />
        </mxCell>
        <mxCell id="DbiIYYR9RFY9QrXzw_fp-43" value="Password?" style="shape=parallelogram;perimeter=parallelogramPerimeter;whiteSpace=wrap;html=1;fixedSize=1;" parent="1" vertex="1">
          <mxGeometry x="340" y="1090" width="120" height="60" as="geometry" />
        </mxCell>
        <mxCell id="DbiIYYR9RFY9QrXzw_fp-53" value="" style="edgeStyle=orthogonalEdgeStyle;rounded=0;orthogonalLoop=1;jettySize=auto;html=1;" parent="1" source="DbiIYYR9RFY9QrXzw_fp-52" target="bHW5ps8ldC-G8NDcM_M1-56" edge="1">
          <mxGeometry relative="1" as="geometry" />
        </mxCell>
        <mxCell id="DbiIYYR9RFY9QrXzw_fp-52" value="enters text" style="shape=parallelogram;perimeter=parallelogramPerimeter;whiteSpace=wrap;html=1;fixedSize=1;" parent="1" vertex="1">
          <mxGeometry x="160" y="1540" width="120" height="60" as="geometry" />
        </mxCell>
        <mxCell id="H76CbdqIO5qQEprUSBtJ-1" value="Load(Diary)" style="rounded=0;whiteSpace=wrap;html=1;" parent="1" vertex="1">
          <mxGeometry x="40" y="1260" width="120" height="60" as="geometry" />
        </mxCell>
        <mxCell id="H76CbdqIO5qQEprUSBtJ-2" style="edgeStyle=orthogonalEdgeStyle;rounded=0;orthogonalLoop=1;jettySize=auto;html=1;entryX=0.5;entryY=0;entryDx=0;entryDy=0;entryPerimeter=0;" parent="1" source="H76CbdqIO5qQEprUSBtJ-1" target="DbiIYYR9RFY9QrXzw_fp-22" edge="1">
          <mxGeometry relative="1" as="geometry" />
        </mxCell>
        <mxCell id="H76CbdqIO5qQEprUSBtJ-3" value="&lt;h1 style=&quot;margin-top: 0px;&quot;&gt;Ввод - вывод&lt;span style=&quot;background-color: transparent; color: light-dark(rgb(0, 0, 0), rgb(255, 255, 255)); font-size: 12px; font-weight: normal;&quot;&gt;.&lt;/span&gt;&lt;/h1&gt;" style="text;html=1;whiteSpace=wrap;overflow=hidden;rounded=0;" parent="1" vertex="1">
          <mxGeometry x="230" y="130" width="180" height="120" as="geometry" />
        </mxCell>
        <mxCell id="H76CbdqIO5qQEprUSBtJ-4" value="DB&amp;nbsp;&lt;div&gt;Interaction Interface&lt;/div&gt;" style="whiteSpace=wrap;html=1;aspect=fixed;" parent="1" vertex="1">
          <mxGeometry x="510" y="170" width="80" height="80" as="geometry" />
        </mxCell>
        <mxCell id="H76CbdqIO5qQEprUSBtJ-5" value="&lt;h1 style=&quot;margin-top: 0px;&quot;&gt;Сохранение - загрузка данных&lt;/h1&gt;" style="text;html=1;whiteSpace=wrap;overflow=hidden;rounded=0;" parent="1" vertex="1">
          <mxGeometry x="460" y="100" width="230" height="120" as="geometry" />
        </mxCell>
        <mxCell id="zMWfYxgsVl_c6os6jh8a-2" value="Auth Controller?" style="whiteSpace=wrap;html=1;aspect=fixed;" parent="1" vertex="1">
          <mxGeometry x="450" y="370" width="80" height="80" as="geometry" />
        </mxCell>
        <mxCell id="zMWfYxgsVl_c6os6jh8a-3" value="&lt;h1 style=&quot;margin-top: 0px;&quot;&gt;Этап авторизации / регистрации&lt;/h1&gt;" style="text;html=1;whiteSpace=wrap;overflow=hidden;rounded=0;" parent="1" vertex="1">
          <mxGeometry x="400" y="290" width="230" height="120" as="geometry" />
        </mxCell>
        <mxCell id="zMWfYxgsVl_c6os6jh8a-4" value="Main Controller" style="whiteSpace=wrap;html=1;aspect=fixed;" parent="1" vertex="1">
          <mxGeometry x="740" y="370" width="80" height="80" as="geometry" />
        </mxCell>
        <mxCell id="zMWfYxgsVl_c6os6jh8a-5" value="&lt;h1 style=&quot;margin-top: 0px;&quot;&gt;Этап работы с приложением&lt;/h1&gt;" style="text;html=1;whiteSpace=wrap;overflow=hidden;rounded=0;" parent="1" vertex="1">
          <mxGeometry x="700" y="290" width="230" height="120" as="geometry" />
        </mxCell>
        <mxCell id="cwf3Pb8Omdf6ZsU_zG3H-1" value="IDataBase&lt;br&gt;Controller" style="whiteSpace=wrap;html=1;aspect=fixed;" vertex="1" parent="1">
          <mxGeometry x="720" y="170" width="80" height="80" as="geometry" />
        </mxCell>
        <mxCell id="dKSEde0WfC3mYhbFeOrT-1" value="&lt;h1 style=&quot;margin-top: 0px;&quot;&gt;Взаимодействие с интерфейсом БД&lt;/h1&gt;" style="text;html=1;whiteSpace=wrap;overflow=hidden;rounded=0;" vertex="1" parent="1">
          <mxGeometry x="710" y="100" width="230" height="120" as="geometry" />
        </mxCell>
      </root>
    </mxGraphModel>
  </diagram>
  <diagram id="ugGySTMXQSY-6Aau65g1" name="Страница — 4">
    <mxGraphModel dx="775" dy="503" grid="1" gridSize="10" guides="1" tooltips="1" connect="1" arrows="1" fold="1" page="1" pageScale="1" pageWidth="827" pageHeight="1169" math="0" shadow="0">
      <root>
        <mxCell id="0" />
        <mxCell id="1" parent="0" />
        <mxCell id="UIQkT86_22Wy4_PvbYPF-3" style="edgeStyle=orthogonalEdgeStyle;rounded=0;orthogonalLoop=1;jettySize=auto;html=1;" parent="1" source="UIQkT86_22Wy4_PvbYPF-1" target="UIQkT86_22Wy4_PvbYPF-2" edge="1">
          <mxGeometry relative="1" as="geometry">
            <Array as="points">
              <mxPoint x="380" y="175" />
              <mxPoint x="350" y="175" />
              <mxPoint x="350" y="100" />
            </Array>
          </mxGeometry>
        </mxCell>
        <mxCell id="cV9fIAABURjZ9Mt6tQdj-2" style="edgeStyle=orthogonalEdgeStyle;rounded=0;orthogonalLoop=1;jettySize=auto;html=1;entryX=0.5;entryY=0;entryDx=0;entryDy=0;" parent="1" source="UIQkT86_22Wy4_PvbYPF-1" target="cV9fIAABURjZ9Mt6tQdj-1" edge="1">
          <mxGeometry relative="1" as="geometry" />
        </mxCell>
        <mxCell id="cV9fIAABURjZ9Mt6tQdj-5" style="edgeStyle=orthogonalEdgeStyle;rounded=0;orthogonalLoop=1;jettySize=auto;html=1;entryX=0.5;entryY=0;entryDx=0;entryDy=0;" parent="1" source="UIQkT86_22Wy4_PvbYPF-1" target="cV9fIAABURjZ9Mt6tQdj-4" edge="1">
          <mxGeometry relative="1" as="geometry" />
        </mxCell>
        <mxCell id="cV9fIAABURjZ9Mt6tQdj-6" style="edgeStyle=orthogonalEdgeStyle;rounded=0;orthogonalLoop=1;jettySize=auto;html=1;entryX=0.5;entryY=0;entryDx=0;entryDy=0;" parent="1" source="UIQkT86_22Wy4_PvbYPF-1" target="cV9fIAABURjZ9Mt6tQdj-3" edge="1">
          <mxGeometry relative="1" as="geometry" />
        </mxCell>
        <mxCell id="UIQkT86_22Wy4_PvbYPF-1" value="User&lt;div&gt;Interaction&amp;nbsp;&lt;/div&gt;&lt;div&gt;Interface&lt;/div&gt;" style="whiteSpace=wrap;html=1;aspect=fixed;" parent="1" vertex="1">
          <mxGeometry x="360" y="220" width="80" height="80" as="geometry" />
        </mxCell>
        <mxCell id="UIQkT86_22Wy4_PvbYPF-2" value="Actor" style="shape=umlActor;verticalLabelPosition=bottom;verticalAlign=top;html=1;outlineConnect=0;" parent="1" vertex="1">
          <mxGeometry x="385" y="70" width="30" height="60" as="geometry" />
        </mxCell>
        <mxCell id="UIQkT86_22Wy4_PvbYPF-4" style="edgeStyle=orthogonalEdgeStyle;rounded=0;orthogonalLoop=1;jettySize=auto;html=1;entryX=0.669;entryY=-0.025;entryDx=0;entryDy=0;entryPerimeter=0;" parent="1" source="UIQkT86_22Wy4_PvbYPF-2" target="UIQkT86_22Wy4_PvbYPF-1" edge="1">
          <mxGeometry relative="1" as="geometry">
            <Array as="points">
              <mxPoint x="440" y="100" />
              <mxPoint x="440" y="175" />
              <mxPoint x="414" y="175" />
            </Array>
          </mxGeometry>
        </mxCell>
        <mxCell id="cV9fIAABURjZ9Mt6tQdj-1" value="ShowData(string text);" style="rounded=0;whiteSpace=wrap;html=1;" parent="1" vertex="1">
          <mxGeometry x="170" y="340" width="120" height="60" as="geometry" />
        </mxCell>
        <mxCell id="cV9fIAABURjZ9Mt6tQdj-3" value="string GetData();" style="rounded=0;whiteSpace=wrap;html=1;" parent="1" vertex="1">
          <mxGeometry x="620" y="340" width="120" height="60" as="geometry" />
        </mxCell>
        <mxCell id="cV9fIAABURjZ9Mt6tQdj-4" value="string GetData(string text)" style="rounded=0;whiteSpace=wrap;html=1;" parent="1" vertex="1">
          <mxGeometry x="470" y="340" width="120" height="60" as="geometry" />
        </mxCell>
      </root>
    </mxGraphModel>
  </diagram>
  <diagram id="VdTU1pcyh1sZhUtcNd5l" name="Страница — 5">
    <mxGraphModel dx="775" dy="1672" grid="1" gridSize="10" guides="1" tooltips="1" connect="1" arrows="1" fold="1" page="1" pageScale="1" pageWidth="827" pageHeight="1169" math="0" shadow="0">
      <root>
        <mxCell id="0" />
        <mxCell id="1" parent="0" />
        <mxCell id="rfv0cEbCqcxvtX2vZTeq-4" style="edgeStyle=orthogonalEdgeStyle;rounded=0;orthogonalLoop=1;jettySize=auto;html=1;entryX=0.5;entryY=1;entryDx=0;entryDy=0;" parent="1" source="rfv0cEbCqcxvtX2vZTeq-1" target="rfv0cEbCqcxvtX2vZTeq-3" edge="1">
          <mxGeometry relative="1" as="geometry" />
        </mxCell>
        <mxCell id="rfv0cEbCqcxvtX2vZTeq-1" value="Serialization DataBase" style="whiteSpace=wrap;html=1;aspect=fixed;" parent="1" vertex="1">
          <mxGeometry x="260" y="170" width="80" height="80" as="geometry" />
        </mxCell>
        <mxCell id="rfv0cEbCqcxvtX2vZTeq-2" value="Abstract Class" style="text;html=1;align=center;verticalAlign=middle;whiteSpace=wrap;rounded=0;" parent="1" vertex="1">
          <mxGeometry x="270" y="120" width="60" height="30" as="geometry" />
        </mxCell>
        <mxCell id="rfv0cEbCqcxvtX2vZTeq-3" value="DB Interaction&amp;nbsp;&lt;div&gt;Interface&lt;/div&gt;" style="whiteSpace=wrap;html=1;aspect=fixed;" parent="1" vertex="1">
          <mxGeometry x="100" y="80" width="80" height="80" as="geometry" />
        </mxCell>
        <mxCell id="rfv0cEbCqcxvtX2vZTeq-13" style="edgeStyle=orthogonalEdgeStyle;rounded=0;orthogonalLoop=1;jettySize=auto;html=1;entryX=0;entryY=0.5;entryDx=0;entryDy=0;" parent="1" source="rfv0cEbCqcxvtX2vZTeq-5" target="rfv0cEbCqcxvtX2vZTeq-11" edge="1">
          <mxGeometry relative="1" as="geometry" />
        </mxCell>
        <mxCell id="rfv0cEbCqcxvtX2vZTeq-14" style="edgeStyle=orthogonalEdgeStyle;rounded=0;orthogonalLoop=1;jettySize=auto;html=1;entryX=0;entryY=0.5;entryDx=0;entryDy=0;" parent="1" source="rfv0cEbCqcxvtX2vZTeq-5" target="rfv0cEbCqcxvtX2vZTeq-12" edge="1">
          <mxGeometry relative="1" as="geometry">
            <Array as="points">
              <mxPoint x="510" y="60" />
              <mxPoint x="320" y="60" />
              <mxPoint x="320" y="-110" />
            </Array>
          </mxGeometry>
        </mxCell>
        <mxCell id="rfv0cEbCqcxvtX2vZTeq-15" style="edgeStyle=orthogonalEdgeStyle;rounded=0;orthogonalLoop=1;jettySize=auto;html=1;entryX=1;entryY=0.5;entryDx=0;entryDy=0;" parent="1" source="rfv0cEbCqcxvtX2vZTeq-5" target="rfv0cEbCqcxvtX2vZTeq-10" edge="1">
          <mxGeometry relative="1" as="geometry">
            <Array as="points">
              <mxPoint x="700" y="110" />
              <mxPoint x="700" y="-5" />
              <mxPoint x="690" y="-5" />
              <mxPoint x="690" y="-110" />
            </Array>
          </mxGeometry>
        </mxCell>
        <mxCell id="rfv0cEbCqcxvtX2vZTeq-16" style="edgeStyle=orthogonalEdgeStyle;rounded=0;orthogonalLoop=1;jettySize=auto;html=1;entryX=1;entryY=0.5;entryDx=0;entryDy=0;" parent="1" source="rfv0cEbCqcxvtX2vZTeq-5" target="rfv0cEbCqcxvtX2vZTeq-9" edge="1">
          <mxGeometry relative="1" as="geometry" />
        </mxCell>
        <mxCell id="rfv0cEbCqcxvtX2vZTeq-17" style="edgeStyle=orthogonalEdgeStyle;rounded=0;orthogonalLoop=1;jettySize=auto;html=1;entryX=1;entryY=0.5;entryDx=0;entryDy=0;" parent="1" source="rfv0cEbCqcxvtX2vZTeq-5" target="rfv0cEbCqcxvtX2vZTeq-1" edge="1">
          <mxGeometry relative="1" as="geometry">
            <mxPoint x="370" y="210" as="targetPoint" />
          </mxGeometry>
        </mxCell>
        <mxCell id="rfv0cEbCqcxvtX2vZTeq-5" value="IDataConverter&lt;div&gt;&amp;lt;UType, DType&amp;gt;&lt;/div&gt;" style="whiteSpace=wrap;html=1;aspect=fixed;" parent="1" vertex="1">
          <mxGeometry x="470" y="70" width="80" height="80" as="geometry" />
        </mxCell>
        <mxCell id="rfv0cEbCqcxvtX2vZTeq-9" value="DType Convert &amp;lt;DType&amp;gt; (Diary)&amp;nbsp;" style="rounded=0;whiteSpace=wrap;html=1;" parent="1" vertex="1">
          <mxGeometry x="530" y="-60" width="120" height="60" as="geometry" />
        </mxCell>
        <mxCell id="rfv0cEbCqcxvtX2vZTeq-10" value="Diary Convert &amp;lt;DType&amp;gt; (DType)&amp;nbsp;" style="rounded=0;whiteSpace=wrap;html=1;" parent="1" vertex="1">
          <mxGeometry x="530" y="-140" width="120" height="60" as="geometry" />
        </mxCell>
        <mxCell id="rfv0cEbCqcxvtX2vZTeq-11" value="UType Convert &amp;lt;UType&amp;gt; (User)&amp;nbsp;" style="rounded=0;whiteSpace=wrap;html=1;" parent="1" vertex="1">
          <mxGeometry x="380" y="-60" width="120" height="60" as="geometry" />
        </mxCell>
        <mxCell id="rfv0cEbCqcxvtX2vZTeq-12" value="User Convert &amp;lt;UType&amp;gt; (UType)&amp;nbsp;" style="rounded=0;whiteSpace=wrap;html=1;" parent="1" vertex="1">
          <mxGeometry x="380" y="-140" width="120" height="60" as="geometry" />
        </mxCell>
        <mxCell id="rACTpue4n7zPNXGU24id-1" value="" style="edgeStyle=orthogonalEdgeStyle;rounded=0;orthogonalLoop=1;jettySize=auto;html=1;" edge="1" parent="1" source="rfv0cEbCqcxvtX2vZTeq-19" target="rfv0cEbCqcxvtX2vZTeq-1">
          <mxGeometry relative="1" as="geometry" />
        </mxCell>
        <mxCell id="rfv0cEbCqcxvtX2vZTeq-19" value="ISerializationDBAccess" style="whiteSpace=wrap;html=1;aspect=fixed;" parent="1" vertex="1">
          <mxGeometry x="235" y="310" width="130" height="130" as="geometry" />
        </mxCell>
        <mxCell id="rACTpue4n7zPNXGU24id-3" value="" style="edgeStyle=orthogonalEdgeStyle;rounded=0;orthogonalLoop=1;jettySize=auto;html=1;" edge="1" parent="1" source="rACTpue4n7zPNXGU24id-2" target="rfv0cEbCqcxvtX2vZTeq-19">
          <mxGeometry relative="1" as="geometry" />
        </mxCell>
        <mxCell id="rACTpue4n7zPNXGU24id-2" value="JsonDB" style="whiteSpace=wrap;html=1;aspect=fixed;" vertex="1" parent="1">
          <mxGeometry x="260" y="480" width="80" height="80" as="geometry" />
        </mxCell>
        <mxCell id="rACTpue4n7zPNXGU24id-6" value="" style="edgeStyle=orthogonalEdgeStyle;rounded=0;orthogonalLoop=1;jettySize=auto;html=1;" edge="1" parent="1" source="rACTpue4n7zPNXGU24id-5" target="rfv0cEbCqcxvtX2vZTeq-5">
          <mxGeometry relative="1" as="geometry" />
        </mxCell>
        <mxCell id="rACTpue4n7zPNXGU24id-5" value="Json&lt;div&gt;DataConverter&lt;/div&gt;" style="whiteSpace=wrap;html=1;aspect=fixed;" vertex="1" parent="1">
          <mxGeometry x="470" y="180" width="80" height="80" as="geometry" />
        </mxCell>
      </root>
    </mxGraphModel>
  </diagram>
</mxfile>
